<svg id="svg" version="1.1" xmlns="http://www.w3.org/2000/svg" xmlns:xlink="http://www.w3.org/1999/xlink" width="400" height="157.37704918032787" viewBox="0, 0, 400,157.37704918032787"><g id="svgg"><path id="path0" d="M0.000 78.667 L 0.000 157.333 200.000 157.333 L 400.000 157.333 400.000 78.667 L 400.000 0.000 200.000 0.000 L 0.000 0.000 0.000 78.667 M137.423 6.742 C 138.198 6.925,138.167 3.962,138.166 78.095 C 138.166 155.778,138.260 149.073,137.167 149.621 C 136.835 149.787,123.809 149.821,73.212 149.790 L 9.674 149.750 9.212 149.288 L 8.750 148.826 8.707 78.512 C 8.661 2.100,8.599 7.074,9.599 6.750 C 10.118 6.582,136.712 6.574,137.423 6.742 M381.163 7.774 C 381.519 7.845,381.808 8.057,382.017 8.399 C 382.325 8.905,382.332 10.537,382.333 79.308 C 382.333 155.921,382.397 150.520,381.491 151.005 C 380.914 151.314,143.021 151.218,142.549 150.909 C 142.330 150.766,142.080 150.461,141.993 150.230 C 141.765 149.631,141.776 8.918,142.004 8.492 C 142.098 8.317,142.379 8.062,142.629 7.926 C 143.105 7.669,379.879 7.517,381.163 7.774 M16.073 14.011 L 15.583 14.522 15.583 78.243 C 15.583 140.612,15.590 141.972,15.900 142.315 C 16.526 143.007,15.708 142.997,73.417 142.985 C 133.096 142.973,130.696 143.007,131.119 142.167 C 131.473 141.463,131.427 14.997,131.072 14.250 C 130.694 13.454,134.640 13.505,73.323 13.502 L 16.562 13.500 16.073 14.011 M99.667 33.396 C 100.446 33.531,101.683 33.692,102.417 33.753 C 106.850 34.122,112.395 37.075,114.775 40.333 C 116.260 42.366,116.219 43.828,114.605 46.408 C 112.155 50.327,108.984 57.154,107.905 60.833 C 107.677 61.612,107.370 62.550,107.224 62.917 C 106.953 63.598,106.444 65.958,106.182 67.750 C 105.787 70.447,105.160 71.500,103.947 71.500 C 97.165 71.500,91.358 64.351,93.350 58.453 C 93.542 57.883,93.844 56.854,94.020 56.167 C 94.375 54.782,95.134 52.875,96.258 50.548 C 96.666 49.703,97.000 48.944,97.000 48.860 C 97.000 48.776,97.117 48.611,97.260 48.492 C 97.991 47.885,98.176 46.572,97.615 45.967 C 96.928 45.226,91.804 45.145,89.333 45.836 C 88.737 46.003,87.855 46.190,87.373 46.252 C 86.038 46.424,83.148 47.403,81.250 48.325 C 80.700 48.593,79.837 49.000,79.333 49.229 C 78.829 49.459,78.193 49.783,77.920 49.949 C 76.506 50.807,75.287 51.500,75.191 51.501 C 75.132 51.501,74.708 51.785,74.250 52.130 C 73.792 52.476,73.117 52.943,72.750 53.166 C 72.383 53.390,72.008 53.635,71.917 53.711 C 71.825 53.786,71.514 54.014,71.225 54.216 C 66.647 57.418,58.489 65.821,56.417 69.470 C 56.325 69.631,55.980 70.135,55.649 70.590 C 54.786 71.779,52.334 75.916,52.332 76.187 C 52.331 76.313,52.031 76.888,51.665 77.465 C 51.299 78.042,51.000 78.604,50.999 78.715 C 50.999 78.826,50.699 79.509,50.333 80.233 C 49.966 80.956,49.667 81.652,49.667 81.778 C 49.667 81.904,49.436 82.512,49.154 83.129 C 48.872 83.745,48.500 84.850,48.328 85.583 C 48.155 86.317,47.785 87.779,47.507 88.833 C 47.228 89.887,47.000 91.169,47.000 91.681 C 47.000 92.193,46.888 93.356,46.751 94.265 C 46.436 96.352,46.435 99.757,46.748 101.917 C 46.881 102.833,46.992 104.001,46.995 104.512 C 47.000 105.413,47.399 106.935,48.215 109.167 C 48.617 110.265,49.573 111.863,50.531 113.038 C 51.031 113.651,53.835 115.667,54.188 115.667 C 54.280 115.667,54.772 115.858,55.283 116.091 C 58.226 117.438,67.746 117.373,70.351 115.990 C 70.498 115.911,71.112 115.769,71.714 115.672 C 72.317 115.576,73.400 115.245,74.122 114.936 C 74.843 114.627,75.692 114.319,76.008 114.250 C 76.325 114.182,76.886 113.950,77.255 113.735 C 77.625 113.520,78.256 113.228,78.657 113.087 C 79.058 112.945,79.734 112.615,80.160 112.353 C 80.586 112.091,81.118 111.820,81.342 111.751 C 81.567 111.683,82.106 111.373,82.542 111.063 C 82.978 110.753,83.375 110.500,83.425 110.500 C 83.475 110.500,83.968 110.200,84.520 109.833 C 85.072 109.467,85.558 109.167,85.599 109.167 C 85.641 109.167,86.366 108.622,87.212 107.956 C 88.058 107.289,89.013 106.550,89.333 106.311 C 91.259 104.882,93.420 102.519,97.599 97.274 C 98.805 95.761,100.861 92.630,101.720 91.000 C 103.119 88.347,104.213 86.040,104.589 84.954 C 105.772 81.533,108.613 81.749,107.687 85.189 C 105.577 93.027,98.649 103.747,92.114 109.287 C 91.381 109.908,90.623 110.567,90.429 110.750 C 89.847 111.300,86.339 113.885,85.000 114.750 C 83.724 115.574,83.337 115.820,81.583 116.925 C 78.678 118.755,73.013 121.172,69.675 122.006 C 68.900 122.199,68.142 122.424,67.991 122.505 C 67.474 122.782,64.321 123.160,61.617 123.270 C 55.152 123.533,51.676 122.403,46.320 118.296 C 44.093 116.588,40.670 111.506,39.610 108.333 C 39.472 107.921,39.196 107.133,38.995 106.583 C 38.795 106.033,38.529 104.983,38.405 104.250 C 38.280 103.517,38.034 102.204,37.856 101.333 C 37.506 99.607,37.597 91.850,37.988 90.167 C 38.083 89.754,38.276 88.479,38.416 87.333 C 38.556 86.188,38.781 84.912,38.916 84.500 C 39.051 84.087,39.382 82.887,39.650 81.833 C 40.183 79.742,40.966 77.362,41.679 75.667 C 41.930 75.071,42.189 74.396,42.254 74.167 C 42.517 73.246,46.090 65.982,47.091 64.333 C 52.064 56.139,59.356 47.720,64.412 44.333 C 64.617 44.196,65.077 43.846,65.434 43.556 C 66.691 42.535,69.488 40.636,71.083 39.720 C 71.725 39.351,72.788 38.739,73.446 38.358 C 74.103 37.978,74.718 37.667,74.811 37.667 C 74.904 37.667,75.566 37.368,76.282 37.002 C 76.998 36.637,77.679 36.337,77.797 36.335 C 77.914 36.334,78.477 36.135,79.047 35.892 C 80.065 35.459,82.153 34.787,84.373 34.176 C 84.991 34.006,86.041 33.818,86.706 33.757 C 87.372 33.696,88.554 33.539,89.333 33.407 C 92.031 32.953,97.085 32.948,99.667 33.396 M180.917 58.922 C 180.367 59.040,179.317 59.248,178.583 59.383 C 177.850 59.517,176.838 59.815,176.333 60.043 C 175.829 60.272,175.118 60.554,174.754 60.671 C 174.389 60.788,173.734 61.135,173.297 61.442 C 172.861 61.749,172.455 62.000,172.395 62.000 C 172.251 62.000,170.026 63.773,169.500 64.307 C 167.594 66.244,165.146 70.724,164.819 72.876 C 164.718 73.540,164.531 74.533,164.404 75.083 C 164.063 76.551,164.108 79.445,164.500 81.333 C 164.681 82.204,164.830 83.125,164.831 83.381 C 164.834 83.931,166.492 87.627,167.086 88.405 C 167.314 88.704,167.500 89.035,167.500 89.140 C 167.500 89.508,171.061 93.015,172.210 93.779 C 175.666 96.076,179.836 97.332,184.014 97.333 L 186.778 97.333 189.192 96.598 C 193.288 95.351,195.917 93.486,198.245 90.176 C 199.347 88.608,198.927 87.430,197.052 86.829 C 196.702 86.717,195.989 86.369,195.467 86.056 C 194.873 85.700,194.200 85.449,193.670 85.386 L 192.822 85.286 191.619 86.521 C 188.870 89.344,187.074 90.220,184.000 90.237 C 173.260 90.296,168.221 76.505,176.180 68.833 C 176.798 68.237,177.591 67.603,177.943 67.424 C 178.295 67.244,178.771 66.974,179.000 66.824 C 182.299 64.656,188.178 65.765,191.508 69.183 L 192.933 70.646 193.675 70.485 C 195.892 70.005,199.001 68.046,198.999 67.131 C 198.996 65.972,195.144 61.936,193.083 60.933 C 190.185 59.522,189.710 59.353,187.687 59.013 C 185.345 58.620,182.493 58.581,180.917 58.922 M222.667 59.305 C 221.626 59.608,221.667 58.863,221.671 77.500 C 221.675 94.677,221.701 95.442,222.321 96.062 C 222.804 96.544,227.309 96.682,228.444 96.248 C 229.452 95.864,229.470 95.725,229.496 88.423 C 229.519 81.564,229.558 81.255,230.433 80.856 C 231.102 80.551,245.169 80.594,245.909 80.903 C 247.093 81.397,247.078 81.299,247.132 88.737 C 247.193 97.039,246.920 96.519,251.206 96.481 C 253.699 96.458,254.647 96.226,254.896 95.577 C 254.953 95.428,255.000 87.414,255.000 77.768 L 255.000 60.229 254.489 59.740 L 253.978 59.250 251.083 59.250 L 248.188 59.250 247.677 59.740 L 247.167 60.229 247.167 66.287 C 247.167 73.195,247.143 73.352,246.055 73.654 C 245.359 73.848,231.438 73.913,230.510 73.727 C 229.486 73.522,229.476 73.462,229.493 67.111 C 229.516 58.763,229.761 59.270,225.667 59.216 C 224.246 59.198,222.896 59.238,222.667 59.305 M290.623 59.401 C 289.727 59.727,289.532 59.936,289.254 60.871 C 289.119 61.328,288.784 62.175,288.510 62.754 C 288.237 63.333,287.963 64.019,287.902 64.278 C 287.841 64.538,287.550 65.350,287.254 66.083 C 286.958 66.817,286.474 68.017,286.178 68.750 C 285.882 69.483,285.525 70.458,285.385 70.917 C 285.246 71.375,284.956 72.125,284.742 72.583 C 284.528 73.042,284.118 74.054,283.831 74.833 C 282.488 78.483,282.171 79.321,281.767 80.288 C 281.529 80.859,281.333 81.406,281.333 81.504 C 281.333 81.601,281.116 82.146,280.850 82.715 C 280.585 83.284,280.280 84.076,280.173 84.475 C 280.066 84.873,279.764 85.623,279.501 86.141 C 279.238 86.659,278.934 87.458,278.825 87.917 C 278.715 88.375,278.498 88.976,278.342 89.251 C 278.186 89.527,277.852 90.352,277.600 91.085 C 277.347 91.817,276.921 92.917,276.654 93.528 C 275.523 96.108,276.064 96.534,280.408 96.485 C 284.389 96.440,284.643 96.297,285.595 93.560 C 286.757 90.216,286.170 90.417,294.804 90.417 C 303.333 90.417,302.991 90.337,303.675 92.479 C 304.904 96.327,305.035 96.417,309.424 96.417 C 313.865 96.417,314.272 96.168,313.246 94.083 C 313.021 93.625,312.836 93.147,312.835 93.021 C 312.834 92.895,312.576 92.220,312.262 91.521 C 311.947 90.822,311.638 90.025,311.573 89.750 C 311.509 89.475,311.166 88.560,310.812 87.717 C 310.457 86.874,310.167 86.107,310.167 86.013 C 310.167 85.919,309.948 85.365,309.682 84.782 C 309.415 84.200,309.084 83.345,308.947 82.883 C 308.810 82.421,308.569 81.794,308.411 81.489 C 308.254 81.185,307.946 80.410,307.727 79.766 C 307.257 78.385,306.482 76.377,305.791 74.750 C 305.518 74.108,305.123 73.096,304.914 72.500 C 304.234 70.561,303.517 68.685,303.147 67.876 C 302.948 67.440,302.616 66.596,302.409 66.000 C 301.025 62.011,300.261 60.297,299.586 59.667 L 299.140 59.250 295.195 59.211 C 292.195 59.182,291.100 59.227,290.623 59.401 M335.500 59.277 C 335.362 59.331,335.081 59.529,334.875 59.717 L 334.500 60.058 334.500 77.747 C 334.500 91.650,334.545 95.491,334.708 95.694 C 335.597 96.792,340.865 96.923,341.914 95.874 L 342.333 95.455 342.334 90.186 C 342.336 83.007,342.192 83.333,345.352 83.333 C 347.568 83.333,349.000 84.109,349.000 85.309 C 349.000 85.392,349.110 85.551,349.245 85.662 C 349.447 85.830,350.984 88.554,351.786 90.167 C 351.900 90.396,352.063 90.696,352.148 90.833 C 352.614 91.586,353.792 93.684,354.112 94.333 C 355.043 96.218,355.538 96.447,358.750 96.481 C 363.739 96.534,364.298 96.193,362.948 93.918 C 362.676 93.459,362.322 92.858,362.161 92.583 C 362.001 92.308,361.505 91.474,361.060 90.729 C 360.149 89.204,359.560 88.209,358.705 86.750 C 358.382 86.200,357.855 85.344,357.532 84.848 C 356.456 83.192,356.608 82.188,358.000 81.751 C 361.646 80.606,365.025 74.379,364.327 70.089 C 363.826 67.000,362.651 64.354,361.136 62.898 C 359.974 61.779,358.529 60.667,358.240 60.667 C 358.113 60.667,357.589 60.474,357.075 60.239 C 355.122 59.346,354.495 59.294,344.750 59.234 C 339.800 59.204,335.637 59.223,335.500 59.277 M395.006 59.667 C 395.387 60.163,395.526 95.064,395.151 96.140 C 394.888 96.894,394.178 97.032,390.886 96.969 L 388.139 96.917 387.668 96.390 C 386.982 95.621,386.974 95.382,387.032 76.833 L 387.083 60.250 387.532 59.809 C 388.180 59.172,388.127 59.180,391.551 59.216 C 394.681 59.250,394.687 59.251,395.006 59.667 M353.709 67.048 C 357.308 69.439,356.916 74.080,352.959 75.922 C 351.995 76.371,344.711 76.552,343.307 76.162 C 342.406 75.912,342.331 75.527,342.350 71.267 C 342.374 65.832,341.814 66.310,348.087 66.371 L 352.757 66.417 353.709 67.048 M295.947 70.260 C 296.181 70.896,296.585 72.009,296.845 72.734 C 297.105 73.458,297.501 74.508,297.726 75.067 C 297.951 75.626,298.286 76.533,298.469 77.083 C 298.653 77.633,299.126 79.005,299.521 80.132 C 300.621 83.266,300.520 83.333,294.700 83.333 C 289.157 83.333,288.860 83.126,290.143 80.137 C 290.327 79.708,290.669 78.753,290.902 78.016 C 291.135 77.279,291.405 76.542,291.502 76.379 C 291.600 76.216,291.948 75.296,292.276 74.333 C 292.605 73.371,293.108 71.895,293.395 71.054 C 294.329 68.317,295.140 68.065,295.947 70.260 " stroke="none" fill="#fbf8f8" fill-rule="evenodd"></path><path id="path1" d="M9.599 6.750 C 8.599 7.074,8.661 2.100,8.707 78.512 L 8.750 148.826 9.212 149.288 L 9.674 149.750 73.212 149.790 C 123.809 149.821,136.835 149.787,137.167 149.621 C 138.260 149.073,138.166 155.778,138.166 78.095 C 138.167 3.962,138.198 6.925,137.423 6.742 C 136.712 6.574,10.118 6.582,9.599 6.750 M142.629 7.926 C 142.379 8.062,142.098 8.317,142.004 8.492 C 141.776 8.918,141.765 149.631,141.993 150.230 C 142.080 150.461,142.330 150.766,142.549 150.909 C 143.021 151.218,380.914 151.314,381.491 151.005 C 382.397 150.520,382.333 155.921,382.333 79.308 C 382.332 10.537,382.325 8.905,382.017 8.399 C 381.808 8.057,381.519 7.845,381.163 7.774 C 379.879 7.517,143.105 7.669,142.629 7.926 M130.447 13.602 C 131.399 13.858,131.334 9.038,131.331 78.275 C 131.329 128.937,131.286 141.834,131.119 142.167 C 130.696 143.007,133.096 142.973,73.417 142.985 C 15.708 142.997,16.526 143.007,15.900 142.315 C 15.590 141.972,15.583 140.612,15.583 78.243 L 15.583 14.522 16.073 14.011 L 16.562 13.500 73.323 13.502 C 104.541 13.504,130.247 13.548,130.447 13.602 M91.500 33.101 C 91.087 33.139,90.112 33.276,89.333 33.407 C 88.554 33.539,87.372 33.696,86.706 33.757 C 86.041 33.818,84.991 34.006,84.373 34.176 C 82.153 34.787,80.065 35.459,79.047 35.892 C 78.477 36.135,77.914 36.334,77.797 36.335 C 77.679 36.337,76.998 36.637,76.282 37.002 C 75.566 37.368,74.904 37.667,74.811 37.667 C 74.718 37.667,74.103 37.978,73.446 38.358 C 72.788 38.739,71.725 39.351,71.083 39.720 C 69.488 40.636,66.691 42.535,65.434 43.556 C 65.077 43.846,64.617 44.196,64.412 44.333 C 61.531 46.263,55.936 51.898,52.632 56.197 C 51.025 58.287,48.591 61.862,47.091 64.333 C 46.090 65.982,42.517 73.246,42.254 74.167 C 42.189 74.396,41.930 75.071,41.679 75.667 C 40.966 77.362,40.183 79.742,39.650 81.833 C 39.382 82.887,39.051 84.087,38.916 84.500 C 38.781 84.912,38.556 86.188,38.416 87.333 C 38.276 88.479,38.083 89.754,37.988 90.167 C 37.597 91.850,37.506 99.607,37.856 101.333 C 38.034 102.204,38.280 103.517,38.405 104.250 C 38.529 104.983,38.795 106.033,38.995 106.583 C 39.196 107.133,39.472 107.921,39.610 108.333 C 40.670 111.506,44.093 116.588,46.320 118.296 C 51.676 122.403,55.152 123.533,61.617 123.270 C 64.321 123.160,67.474 122.782,67.991 122.505 C 68.142 122.424,68.900 122.199,69.675 122.006 C 73.013 121.172,78.678 118.755,81.583 116.925 C 83.337 115.820,83.724 115.574,85.000 114.750 C 86.339 113.885,89.847 111.300,90.429 110.750 C 90.623 110.567,91.381 109.908,92.114 109.287 C 98.649 103.747,105.577 93.027,107.687 85.189 C 108.613 81.749,105.772 81.533,104.589 84.954 C 104.213 86.040,103.119 88.347,101.720 91.000 C 100.861 92.630,98.805 95.761,97.599 97.274 C 93.420 102.519,91.259 104.882,89.333 106.311 C 89.013 106.550,88.058 107.289,87.212 107.956 C 86.366 108.622,85.641 109.167,85.599 109.167 C 85.558 109.167,85.072 109.467,84.520 109.833 C 83.968 110.200,83.475 110.500,83.425 110.500 C 83.375 110.500,82.978 110.753,82.542 111.063 C 82.106 111.373,81.567 111.683,81.342 111.751 C 81.118 111.820,80.586 112.091,80.160 112.353 C 79.734 112.615,79.058 112.945,78.657 113.087 C 78.256 113.228,77.625 113.520,77.255 113.735 C 76.886 113.950,76.325 114.182,76.008 114.250 C 75.692 114.319,74.843 114.627,74.122 114.936 C 73.400 115.245,72.317 115.576,71.714 115.672 C 71.112 115.769,70.498 115.911,70.351 115.990 C 67.746 117.373,58.226 117.438,55.283 116.091 C 54.772 115.858,54.280 115.667,54.188 115.667 C 52.744 115.667,49.171 111.778,48.215 109.167 C 47.399 106.935,47.000 105.413,46.995 104.512 C 46.992 104.001,46.881 102.833,46.748 101.917 C 46.435 99.757,46.436 96.352,46.751 94.265 C 46.888 93.356,47.000 92.193,47.000 91.681 C 47.000 91.169,47.228 89.887,47.507 88.833 C 47.785 87.779,48.155 86.317,48.328 85.583 C 48.500 84.850,48.872 83.745,49.154 83.129 C 49.436 82.512,49.667 81.904,49.667 81.778 C 49.667 81.652,49.966 80.956,50.333 80.233 C 50.699 79.509,50.999 78.826,50.999 78.715 C 51.000 78.604,51.299 78.042,51.665 77.465 C 52.031 76.888,52.331 76.313,52.332 76.187 C 52.334 75.916,54.786 71.779,55.649 70.590 C 55.980 70.135,56.325 69.631,56.417 69.470 C 58.489 65.821,66.647 57.418,71.225 54.216 C 71.514 54.014,71.825 53.786,71.917 53.711 C 72.008 53.635,72.383 53.390,72.750 53.166 C 73.117 52.943,73.792 52.476,74.250 52.130 C 74.708 51.785,75.132 51.501,75.191 51.501 C 75.287 51.500,76.506 50.807,77.920 49.949 C 78.193 49.783,78.829 49.459,79.333 49.229 C 79.837 49.000,80.700 48.593,81.250 48.325 C 83.148 47.403,86.038 46.424,87.373 46.252 C 87.855 46.190,88.737 46.003,89.333 45.836 C 91.804 45.145,96.928 45.226,97.615 45.967 C 98.176 46.572,97.991 47.885,97.260 48.492 C 97.117 48.611,97.000 48.776,97.000 48.860 C 97.000 48.944,96.666 49.703,96.258 50.548 C 95.134 52.875,94.375 54.782,94.020 56.167 C 93.844 56.854,93.542 57.883,93.350 58.453 C 91.358 64.351,97.165 71.500,103.947 71.500 C 105.160 71.500,105.787 70.447,106.182 67.750 C 106.444 65.958,106.953 63.598,107.224 62.917 C 107.370 62.550,107.677 61.612,107.905 60.833 C 108.984 57.154,112.155 50.327,114.605 46.408 C 115.870 44.386,116.078 43.485,115.639 41.936 C 114.663 38.489,107.724 34.195,102.417 33.753 C 101.683 33.692,100.446 33.531,99.667 33.396 C 98.288 33.156,93.005 32.966,91.500 33.101 M187.687 59.013 C 189.710 59.353,190.185 59.522,193.083 60.933 C 195.144 61.936,198.996 65.972,198.999 67.131 C 199.001 68.046,195.892 70.005,193.675 70.485 L 192.933 70.646 191.508 69.183 C 188.178 65.765,182.299 64.656,179.000 66.824 C 178.771 66.974,178.295 67.244,177.943 67.424 C 177.591 67.603,176.798 68.237,176.180 68.833 C 168.221 76.505,173.260 90.296,184.000 90.237 C 187.074 90.220,188.870 89.344,191.619 86.521 L 192.822 85.286 193.670 85.386 C 194.200 85.449,194.873 85.700,195.467 86.056 C 195.989 86.369,196.702 86.717,197.052 86.829 C 198.927 87.430,199.347 88.608,198.245 90.176 C 195.917 93.486,193.288 95.351,189.192 96.598 L 186.778 97.333 184.014 97.333 C 179.836 97.332,175.666 96.076,172.210 93.779 C 171.061 93.015,167.500 89.508,167.500 89.140 C 167.500 89.035,167.314 88.704,167.086 88.405 C 166.492 87.627,164.834 83.931,164.831 83.381 C 164.830 83.125,164.681 82.204,164.500 81.333 C 164.108 79.445,164.063 76.551,164.404 75.083 C 164.531 74.533,164.718 73.540,164.819 72.876 C 165.146 70.724,167.594 66.244,169.500 64.307 C 170.026 63.773,172.251 62.000,172.395 62.000 C 172.455 62.000,172.861 61.749,173.297 61.442 C 173.734 61.135,174.389 60.788,174.754 60.671 C 175.118 60.554,175.829 60.272,176.333 60.043 C 176.838 59.815,177.850 59.517,178.583 59.383 C 179.317 59.248,180.367 59.040,180.917 58.922 C 182.493 58.581,185.345 58.620,187.687 59.013 M228.770 59.621 C 229.485 60.131,229.511 60.406,229.493 67.111 C 229.476 73.462,229.486 73.522,230.510 73.727 C 231.438 73.913,245.359 73.848,246.055 73.654 C 247.143 73.352,247.167 73.195,247.167 66.287 L 247.167 60.229 247.677 59.740 L 248.188 59.250 251.083 59.250 L 253.978 59.250 254.489 59.740 L 255.000 60.229 255.000 77.768 C 255.000 87.414,254.953 95.428,254.896 95.577 C 254.647 96.226,253.699 96.458,251.206 96.481 C 246.920 96.519,247.193 97.039,247.132 88.737 C 247.078 81.299,247.093 81.397,245.909 80.903 C 245.169 80.594,231.102 80.551,230.433 80.856 C 229.558 81.255,229.519 81.564,229.496 88.423 C 229.470 95.725,229.452 95.864,228.444 96.248 C 227.309 96.682,222.804 96.544,222.321 96.062 C 221.701 95.442,221.675 94.677,221.671 77.500 C 221.667 58.863,221.626 59.608,222.667 59.305 C 223.717 58.998,228.224 59.231,228.770 59.621 M299.586 59.667 C 300.261 60.297,301.025 62.011,302.409 66.000 C 302.616 66.596,302.948 67.440,303.147 67.876 C 303.517 68.685,304.234 70.561,304.914 72.500 C 305.123 73.096,305.518 74.108,305.791 74.750 C 306.482 76.377,307.257 78.385,307.727 79.766 C 307.946 80.410,308.254 81.185,308.411 81.489 C 308.569 81.794,308.810 82.421,308.947 82.883 C 309.084 83.345,309.415 84.200,309.682 84.782 C 309.948 85.365,310.167 85.919,310.167 86.013 C 310.167 86.107,310.457 86.874,310.812 87.717 C 311.166 88.560,311.509 89.475,311.573 89.750 C 311.638 90.025,311.947 90.822,312.262 91.521 C 312.576 92.220,312.834 92.895,312.835 93.021 C 312.836 93.147,313.021 93.625,313.246 94.083 C 314.272 96.168,313.865 96.417,309.424 96.417 C 305.035 96.417,304.904 96.327,303.675 92.479 C 302.991 90.337,303.333 90.417,294.804 90.417 C 286.170 90.417,286.757 90.216,285.595 93.560 C 284.643 96.297,284.389 96.440,280.408 96.485 C 276.064 96.534,275.523 96.108,276.654 93.528 C 276.921 92.917,277.347 91.817,277.600 91.085 C 277.852 90.352,278.186 89.527,278.342 89.251 C 278.498 88.976,278.715 88.375,278.825 87.917 C 278.934 87.458,279.238 86.659,279.501 86.141 C 279.764 85.623,280.066 84.873,280.173 84.475 C 280.280 84.076,280.585 83.284,280.850 82.715 C 281.116 82.146,281.333 81.601,281.333 81.504 C 281.333 81.406,281.529 80.859,281.767 80.288 C 282.171 79.321,282.488 78.483,283.831 74.833 C 284.118 74.054,284.528 73.042,284.742 72.583 C 284.956 72.125,285.246 71.375,285.385 70.917 C 285.525 70.458,285.882 69.483,286.178 68.750 C 286.474 68.017,286.958 66.817,287.254 66.083 C 287.550 65.350,287.841 64.538,287.902 64.278 C 287.963 64.019,288.237 63.333,288.510 62.754 C 288.784 62.175,289.119 61.328,289.254 60.871 C 289.725 59.285,290.167 59.162,295.195 59.211 L 299.140 59.250 299.586 59.667 M354.945 59.551 C 355.603 59.694,356.561 60.004,357.075 60.239 C 357.589 60.474,358.113 60.667,358.240 60.667 C 358.529 60.667,359.974 61.779,361.136 62.898 C 362.651 64.354,363.826 67.000,364.327 70.089 C 365.025 74.379,361.646 80.606,358.000 81.751 C 356.608 82.188,356.456 83.192,357.532 84.848 C 357.855 85.344,358.382 86.200,358.705 86.750 C 359.560 88.209,360.149 89.204,361.060 90.729 C 361.505 91.474,362.001 92.308,362.161 92.583 C 362.322 92.858,362.676 93.459,362.948 93.918 C 364.298 96.193,363.739 96.534,358.750 96.481 C 355.538 96.447,355.043 96.218,354.112 94.333 C 353.792 93.684,352.614 91.586,352.148 90.833 C 352.063 90.696,351.900 90.396,351.786 90.167 C 350.984 88.554,349.447 85.830,349.245 85.662 C 349.110 85.551,349.000 85.392,349.000 85.309 C 349.000 84.109,347.568 83.333,345.352 83.333 C 342.192 83.333,342.336 83.007,342.334 90.186 L 342.333 95.455 341.914 95.874 C 341.363 96.425,340.905 96.500,338.100 96.500 C 335.663 96.500,335.289 96.411,334.708 95.694 C 334.545 95.491,334.500 91.650,334.500 77.747 L 334.500 60.058 334.875 59.717 C 335.476 59.170,335.346 59.176,344.750 59.234 C 352.143 59.280,353.963 59.336,354.945 59.551 M388.199 59.275 C 388.079 59.326,387.779 59.566,387.532 59.809 L 387.083 60.250 387.032 76.833 C 386.974 95.382,386.982 95.621,387.668 96.390 L 388.139 96.917 390.886 96.969 C 394.178 97.032,394.888 96.894,395.151 96.140 C 395.526 95.064,395.387 60.163,395.006 59.667 C 394.694 59.260,389.007 58.933,388.199 59.275 M343.007 66.539 C 342.416 66.848,342.368 67.189,342.350 71.267 C 342.331 75.527,342.406 75.912,343.307 76.162 C 344.711 76.552,351.995 76.371,352.959 75.922 C 356.916 74.080,357.308 69.439,353.709 67.048 L 352.757 66.417 348.087 66.371 C 344.541 66.337,343.318 66.377,343.007 66.539 M294.314 69.103 C 294.096 69.335,293.682 70.213,293.395 71.054 C 293.108 71.895,292.605 73.371,292.276 74.333 C 291.948 75.296,291.600 76.216,291.502 76.379 C 291.405 76.542,291.135 77.279,290.902 78.016 C 290.669 78.753,290.327 79.708,290.143 80.137 C 288.860 83.126,289.157 83.333,294.700 83.333 C 300.520 83.333,300.621 83.266,299.521 80.132 C 299.126 79.005,298.653 77.633,298.469 77.083 C 298.286 76.533,297.951 75.626,297.726 75.067 C 297.501 74.508,297.105 73.458,296.845 72.734 C 295.626 69.337,295.522 69.104,295.117 68.892 C 294.756 68.703,294.670 68.725,294.314 69.103 " stroke="none" fill="#fb7475" fill-rule="evenodd"></path></g></svg>