<svg id="svg" version="1.1" xmlns="http://www.w3.org/2000/svg" xmlns:xlink="http://www.w3.org/1999/xlink" width="400" height="400" viewBox="0, 0, 400,400"><g id="svgg"><path id="path0" d="M56.753 51.801 C 55.136 52.680,55.200 46.536,55.200 201.690 C 55.200 365.398,54.932 350.755,57.942 351.591 C 60.272 352.238,339.902 352.137,341.200 351.489 C 343.818 350.180,343.599 363.882,343.599 201.597 C 343.600 53.158,343.597 52.892,342.115 51.768 C 341.015 50.934,58.288 50.967,56.753 51.801 M326.371 66.585 C 326.994 66.907,327.615 67.462,327.752 67.818 C 328.512 69.798,328.001 335.110,327.235 336.056 L 326.471 337.000 200.335 337.200 C 74.674 337.399,72.732 337.382,71.745 336.084 C 71.321 335.526,71.223 310.750,71.213 201.682 L 71.200 67.964 72.182 66.982 L 73.164 66.000 199.202 66.000 C 309.037 66.000,325.385 66.075,326.371 66.585 M241.400 106.253 C 240.300 106.343,237.150 106.757,234.400 107.174 C 231.650 107.591,228.230 108.047,226.800 108.187 C 224.326 108.430,217.710 110.352,213.400 112.081 C 212.300 112.522,210.379 113.215,209.132 113.621 C 207.884 114.026,205.834 114.907,204.575 115.579 C 203.317 116.251,202.062 116.800,201.786 116.800 C 201.307 116.800,196.923 118.961,194.041 120.619 C 193.294 121.048,190.774 122.668,188.441 124.218 C 186.109 125.768,183.029 127.687,181.598 128.483 C 178.737 130.073,175.109 132.910,169.682 137.800 C 167.729 139.560,165.786 141.284,165.365 141.630 C 164.215 142.578,154.243 153.546,152.725 155.534 C 151.996 156.488,151.006 157.838,150.524 158.534 C 149.442 160.097,147.700 162.356,145.487 165.065 C 144.559 166.201,143.188 168.181,142.441 169.465 C 141.693 170.749,140.589 172.520,139.988 173.400 C 139.387 174.280,137.772 177.160,136.400 179.800 C 135.028 182.440,133.747 184.771,133.553 184.980 C 133.359 185.189,133.200 185.639,133.199 185.980 C 133.198 186.321,132.577 187.630,131.817 188.890 C 131.058 190.149,130.234 191.949,129.986 192.890 C 129.738 193.830,129.106 195.500,128.581 196.600 C 126.783 200.368,125.522 203.803,124.395 208.000 C 123.775 210.310,122.999 212.830,122.672 213.600 C 122.344 214.370,121.783 217.340,121.425 220.200 C 121.067 223.060,120.519 226.750,120.207 228.400 C 117.891 240.635,120.767 260.323,126.283 270.000 C 127.564 272.246,128.182 273.142,132.086 278.400 C 134.385 281.498,139.006 285.965,141.439 287.443 C 142.202 287.907,143.226 288.645,143.713 289.085 C 150.650 295.336,175.157 298.570,186.600 294.745 C 187.260 294.524,189.690 293.923,192.000 293.410 C 196.490 292.411,201.867 290.575,204.800 289.039 C 205.790 288.520,207.320 287.871,208.200 287.596 C 209.080 287.321,210.036 286.908,210.325 286.678 C 210.613 286.449,211.898 285.707,213.179 285.031 C 219.334 281.779,223.579 279.412,225.400 278.218 C 233.962 272.601,237.175 270.374,239.841 268.208 C 243.446 265.278,251.070 257.383,254.751 252.768 C 256.754 250.256,259.128 247.300,260.026 246.200 C 260.924 245.100,262.542 242.850,263.622 241.200 C 264.703 239.550,265.925 237.750,266.338 237.200 C 267.491 235.667,270.287 230.717,270.604 229.651 C 270.759 229.128,271.266 228.055,271.732 227.266 C 272.862 225.351,275.932 216.280,276.246 213.929 C 276.993 208.332,270.437 209.183,268.575 214.925 C 267.826 217.235,264.728 223.607,263.539 225.282 C 263.116 225.878,262.572 226.958,262.330 227.682 C 262.088 228.407,261.491 229.540,261.004 230.200 C 260.517 230.860,259.797 232.030,259.405 232.800 C 259.012 233.570,258.066 234.920,257.302 235.800 C 255.858 237.464,255.056 238.444,252.387 241.800 C 246.916 248.680,238.751 257.256,235.630 259.400 C 234.670 260.060,233.145 261.189,232.242 261.910 C 225.789 267.057,223.725 268.405,218.200 271.084 C 215.780 272.257,213.173 273.573,212.406 274.009 C 211.640 274.444,210.688 274.800,210.290 274.800 C 209.893 274.800,208.879 275.151,208.038 275.581 C 207.196 276.010,205.628 276.574,204.554 276.834 C 203.479 277.094,201.790 277.731,200.800 278.250 C 199.810 278.770,197.200 279.569,195.000 280.026 C 192.800 280.484,189.290 281.215,187.200 281.651 C 183.878 282.343,182.142 282.427,173.400 282.317 L 163.400 282.191 159.600 280.851 C 154.222 278.953,148.289 274.907,146.917 272.200 C 146.582 271.540,145.871 270.531,145.335 269.958 C 144.800 269.385,144.019 267.855,143.601 266.558 C 143.182 265.261,142.468 263.163,142.014 261.896 C 140.542 257.790,139.616 243.294,140.362 236.029 C 141.399 225.926,141.661 224.257,142.595 221.775 C 143.129 220.357,143.766 218.072,144.012 216.698 C 144.258 215.324,144.894 213.415,145.426 212.456 C 145.958 211.497,146.588 209.967,146.826 209.056 C 147.065 208.145,147.710 206.707,148.261 205.861 C 148.812 205.014,149.511 203.618,149.815 202.758 C 150.118 201.899,150.896 200.521,151.543 199.698 C 152.190 198.874,152.842 197.787,152.992 197.283 C 153.333 196.137,158.192 188.083,159.196 187.000 C 159.604 186.560,160.896 184.747,162.069 182.972 C 165.767 177.370,175.226 166.997,180.200 163.089 C 181.520 162.052,184.130 159.837,186.000 158.168 C 189.075 155.423,191.916 153.328,198.159 149.200 C 199.324 148.430,201.070 147.272,202.039 146.626 C 205.495 144.323,207.342 143.200,207.677 143.200 C 207.863 143.200,208.687 142.778,209.508 142.262 C 210.329 141.746,211.990 141.004,213.200 140.613 C 214.410 140.222,215.954 139.568,216.632 139.160 C 217.310 138.752,219.380 137.897,221.232 137.259 C 223.084 136.622,225.323 135.823,226.206 135.484 C 227.089 135.146,229.216 134.673,230.931 134.435 C 232.647 134.196,234.444 133.781,234.925 133.512 C 236.425 132.673,251.360 132.551,252.606 133.367 C 254.035 134.303,253.971 136.567,252.459 138.656 C 251.240 140.338,248.711 145.181,248.199 146.814 C 248.029 147.356,247.301 149.062,246.581 150.605 C 245.861 152.147,245.145 154.127,244.990 155.005 C 244.834 155.882,244.240 157.770,243.669 159.200 C 238.663 171.731,251.134 187.410,266.331 187.692 C 270.378 187.767,271.316 186.206,272.998 176.600 C 273.998 170.887,275.810 165.106,277.889 161.000 C 278.334 160.120,279.008 158.324,279.387 157.009 C 279.766 155.694,280.384 154.164,280.762 153.609 C 281.625 152.341,285.200 145.015,285.200 144.514 C 285.200 144.310,285.735 143.435,286.389 142.571 C 287.043 141.707,287.583 140.802,287.589 140.560 C 287.595 140.318,288.125 139.395,288.767 138.510 C 289.408 137.624,290.318 136.202,290.787 135.350 C 291.257 134.497,292.068 133.093,292.590 132.228 C 295.657 127.143,292.651 120.984,284.571 115.800 C 282.087 114.206,275.523 110.803,274.930 110.801 C 274.672 110.801,273.110 110.259,271.460 109.599 C 269.349 108.753,267.237 108.273,264.330 107.979 C 262.059 107.749,258.625 107.308,256.699 106.999 C 252.925 106.395,244.643 105.991,241.400 106.253 " stroke="none" fill="#fb7d82" fill-rule="evenodd"></path><path id="path1" d="M0.000 200.000 L 0.000 400.000 200.000 400.000 L 400.000 400.000 400.000 200.000 L 400.000 0.000 200.000 0.000 L 0.000 0.000 0.000 200.000 M342.115 51.768 C 343.597 52.892,343.600 53.158,343.599 201.597 C 343.599 363.882,343.818 350.180,341.200 351.489 C 339.902 352.137,60.272 352.238,57.942 351.591 C 54.932 350.755,55.200 365.398,55.200 201.690 C 55.200 46.536,55.136 52.680,56.753 51.801 C 58.288 50.967,341.015 50.934,342.115 51.768 M72.182 66.982 L 71.200 67.964 71.213 201.682 C 71.223 310.750,71.321 335.526,71.745 336.084 C 72.732 337.382,74.674 337.399,200.335 337.200 L 326.471 337.000 327.235 336.056 C 328.001 335.110,328.512 69.798,327.752 67.818 C 327.016 65.900,334.063 66.000,199.202 66.000 L 73.164 66.000 72.182 66.982 M256.699 106.999 C 258.625 107.308,262.059 107.749,264.330 107.979 C 267.237 108.273,269.349 108.753,271.460 109.599 C 273.110 110.259,274.672 110.801,274.930 110.801 C 275.523 110.803,282.087 114.206,284.571 115.800 C 292.651 120.984,295.657 127.143,292.590 132.228 C 292.068 133.093,291.257 134.497,290.787 135.350 C 290.318 136.202,289.408 137.624,288.767 138.510 C 288.125 139.395,287.595 140.318,287.589 140.560 C 287.583 140.802,287.043 141.707,286.389 142.571 C 285.735 143.435,285.200 144.310,285.200 144.514 C 285.200 145.015,281.625 152.341,280.762 153.609 C 280.384 154.164,279.766 155.694,279.387 157.009 C 279.008 158.324,278.334 160.120,277.889 161.000 C 275.810 165.106,273.998 170.887,272.998 176.600 C 271.316 186.206,270.378 187.767,266.331 187.692 C 251.134 187.410,238.663 171.731,243.669 159.200 C 244.240 157.770,244.834 155.882,244.990 155.005 C 245.145 154.127,245.861 152.147,246.581 150.605 C 247.301 149.062,248.029 147.356,248.199 146.814 C 248.711 145.181,251.240 140.338,252.459 138.656 C 253.971 136.567,254.035 134.303,252.606 133.367 C 251.360 132.551,236.425 132.673,234.925 133.512 C 234.444 133.781,232.647 134.196,230.931 134.435 C 229.216 134.673,227.089 135.146,226.206 135.484 C 225.323 135.823,223.084 136.622,221.232 137.259 C 219.380 137.897,217.310 138.752,216.632 139.160 C 215.954 139.568,214.410 140.222,213.200 140.613 C 211.990 141.004,210.329 141.746,209.508 142.262 C 208.687 142.778,207.863 143.200,207.677 143.200 C 207.342 143.200,205.495 144.323,202.039 146.626 C 201.070 147.272,199.324 148.430,198.159 149.200 C 191.916 153.328,189.075 155.423,186.000 158.168 C 184.130 159.837,181.520 162.052,180.200 163.089 C 175.226 166.997,165.767 177.370,162.069 182.972 C 160.896 184.747,159.604 186.560,159.196 187.000 C 158.192 188.083,153.333 196.137,152.992 197.283 C 152.842 197.787,152.190 198.874,151.543 199.698 C 150.896 200.521,150.118 201.899,149.815 202.758 C 149.511 203.618,148.812 205.014,148.261 205.861 C 147.710 206.707,147.065 208.145,146.826 209.056 C 146.588 209.967,145.958 211.497,145.426 212.456 C 144.894 213.415,144.258 215.324,144.012 216.698 C 143.766 218.072,143.129 220.357,142.595 221.775 C 141.661 224.257,141.399 225.926,140.362 236.029 C 139.616 243.294,140.542 257.790,142.014 261.896 C 142.468 263.163,143.182 265.261,143.601 266.558 C 144.019 267.855,144.800 269.385,145.335 269.958 C 145.871 270.531,146.582 271.540,146.917 272.200 C 148.289 274.907,154.222 278.953,159.600 280.851 L 163.400 282.191 173.400 282.317 C 182.142 282.427,183.878 282.343,187.200 281.651 C 189.290 281.215,192.800 280.484,195.000 280.026 C 197.200 279.569,199.810 278.770,200.800 278.250 C 201.790 277.731,203.479 277.094,204.554 276.834 C 205.628 276.574,207.196 276.010,208.038 275.581 C 208.879 275.151,209.893 274.800,210.290 274.800 C 210.688 274.800,211.640 274.444,212.406 274.009 C 213.173 273.573,215.780 272.257,218.200 271.084 C 223.725 268.405,225.789 267.057,232.242 261.910 C 233.145 261.189,234.670 260.060,235.630 259.400 C 238.751 257.256,246.916 248.680,252.387 241.800 C 255.056 238.444,255.858 237.464,257.302 235.800 C 258.066 234.920,259.012 233.570,259.405 232.800 C 259.797 232.030,260.517 230.860,261.004 230.200 C 261.491 229.540,262.088 228.407,262.330 227.682 C 262.572 226.958,263.116 225.878,263.539 225.282 C 264.728 223.607,267.826 217.235,268.575 214.925 C 270.437 209.183,276.993 208.332,276.246 213.929 C 275.932 216.280,272.862 225.351,271.732 227.266 C 271.266 228.055,270.759 229.128,270.604 229.651 C 270.287 230.717,267.491 235.667,266.338 237.200 C 265.925 237.750,264.703 239.550,263.622 241.200 C 262.542 242.850,260.924 245.100,260.026 246.200 C 259.128 247.300,256.754 250.256,254.751 252.768 C 251.070 257.383,243.446 265.278,239.841 268.208 C 237.175 270.374,233.962 272.601,225.400 278.218 C 223.579 279.412,219.334 281.779,213.179 285.031 C 211.898 285.707,210.613 286.449,210.325 286.678 C 210.036 286.908,209.080 287.321,208.200 287.596 C 207.320 287.871,205.790 288.520,204.800 289.039 C 201.867 290.575,196.490 292.411,192.000 293.410 C 189.690 293.923,187.260 294.524,186.600 294.745 C 175.157 298.570,150.650 295.336,143.713 289.085 C 143.226 288.645,142.202 287.907,141.439 287.443 C 137.136 284.829,130.159 276.800,126.283 270.000 C 120.767 260.323,117.891 240.635,120.207 228.400 C 120.519 226.750,121.067 223.060,121.425 220.200 C 121.783 217.340,122.344 214.370,122.672 213.600 C 122.999 212.830,123.775 210.310,124.395 208.000 C 125.522 203.803,126.783 200.368,128.581 196.600 C 129.106 195.500,129.738 193.830,129.986 192.890 C 130.234 191.949,131.058 190.149,131.817 188.890 C 132.577 187.630,133.198 186.321,133.199 185.980 C 133.200 185.639,133.359 185.189,133.553 184.980 C 133.747 184.771,135.028 182.440,136.400 179.800 C 137.772 177.160,139.387 174.280,139.988 173.400 C 140.589 172.520,141.693 170.749,142.441 169.465 C 143.188 168.181,144.559 166.201,145.487 165.065 C 147.700 162.356,149.442 160.097,150.524 158.534 C 151.006 157.838,151.996 156.488,152.725 155.534 C 154.243 153.546,164.215 142.578,165.365 141.630 C 165.786 141.284,167.729 139.560,169.682 137.800 C 175.109 132.910,178.737 130.073,181.598 128.483 C 183.029 127.687,186.109 125.768,188.441 124.218 C 190.774 122.668,193.294 121.048,194.041 120.619 C 196.923 118.961,201.307 116.800,201.786 116.800 C 202.062 116.800,203.317 116.251,204.575 115.579 C 205.834 114.907,207.884 114.026,209.132 113.621 C 210.379 113.215,212.300 112.522,213.400 112.081 C 217.710 110.352,224.326 108.430,226.800 108.187 C 228.230 108.047,231.650 107.591,234.400 107.174 C 242.742 105.908,249.556 105.855,256.699 106.999 " stroke="none" fill="#fbfbfb" fill-rule="evenodd"></path></g></svg>